<?xml version="1.0" encoding="utf-8"?>
<!-- Generator: Adobe Illustrator 22.0.0, SVG Export Plug-In . SVG Version: 6.00 Build 0)  -->
<svg version="1.1" id="Capa_1" xmlns="http://www.w3.org/2000/svg" xmlns:xlink="http://www.w3.org/1999/xlink" x="0px" y="0px"
	 viewBox="0 0 548 182" style="enable-background:new 0 0 548 182;" xml:space="preserve">
<style type="text/css">
	.st0{fill:url(#SVGID_1_);}
	.st1{fill:url(#SVGID_2_);}
	.st2{fill:url(#SVGID_3_);}
	.st3{fill:url(#SVGID_4_);}
	.st4{fill:url(#SVGID_5_);}
	.st5{fill:url(#SVGID_6_);}
</style>
<g>
	<g>
		<linearGradient id="SVGID_1_" gradientUnits="userSpaceOnUse" x1="210.6692" y1="105.1222" x2="210.6692" y2="104.7833">
			<stop  offset="0" style="stop-color:#A68443"/>
			<stop  offset="0.1963" style="stop-color:#BA9753"/>
			<stop  offset="0.4657" style="stop-color:#DEBF70"/>
			<stop  offset="0.5031" style="stop-color:#E4C674"/>
			<stop  offset="0.8344" style="stop-color:#B0914C"/>
			<stop  offset="1" style="stop-color:#A38342"/>
		</linearGradient>
		<path class="st0" d="M210.7,104.9C210.7,105.5,210.7,104.4,210.7,104.9L210.7,104.9z"/>
		<linearGradient id="SVGID_2_" gradientUnits="userSpaceOnUse" x1="132.9175" y1="42.3155" x2="132.9175" y2="42.3116">
			<stop  offset="0" style="stop-color:#A68443"/>
			<stop  offset="0.1963" style="stop-color:#BA9753"/>
			<stop  offset="0.4657" style="stop-color:#DEBF70"/>
			<stop  offset="0.5031" style="stop-color:#E4C674"/>
			<stop  offset="0.8344" style="stop-color:#B0914C"/>
			<stop  offset="1" style="stop-color:#A38342"/>
		</linearGradient>
		<path class="st1" d="M132.9,42.3C133.4,42.3,132.4,42.3,132.9,42.3L132.9,42.3z"/>
		<linearGradient id="SVGID_3_" gradientUnits="userSpaceOnUse" x1="113.2502" y1="176.8949" x2="113.2502" y2="14.4087">
			<stop  offset="0" style="stop-color:#A68443"/>
			<stop  offset="0.1963" style="stop-color:#BA9753"/>
			<stop  offset="0.4657" style="stop-color:#DEBF70"/>
			<stop  offset="0.5031" style="stop-color:#E4C674"/>
			<stop  offset="0.8344" style="stop-color:#B0914C"/>
			<stop  offset="1" style="stop-color:#A38342"/>
		</linearGradient>
		<path class="st2" d="M151.9,32.8c-11.7-1.5-23-2-33.5-2c-20.6,0-38.4,1.9-51.5,1.9c-14.4,0-23.4-2.4-23.4-12.9
			c0-1.6,0.2-3.4,0.7-5.4c-3.6,4.9-13.3,18.1-14.4,20.1c8,11,19.3,14.2,33.4,14.2c18.9,0,43.3-5.8,69.8-6.4c-0.5,0,0.4,0,0,0
			c20.4,0.1,77.7,9.5,77.7,62.6c0-0.6,0,0.6,0,0c-0.8,33.4-27.6,60-55.2,61.7c-0.4,0-3.7,0.2-5.3,0.2c-7,0-20.1-1.3-35.7-9
			c-0.1,0,3.4-2.4,8.3-6.3c2.3-1.8,4.9-3.9,7.5-6.7c0.7-0.7,2.1-2.4,2.4-2.8c4.9-5.8,10-13.9,12.5-22.8c9.5-39-29.7-52.7-31.6-53.3
			c0,0,0-0.1-0.1-0.1L96.8,89.1c4.1-1.2,7.9-1.8,11.4-1.8c16.7,0,26.7,12.8,26.7,28c0,13.5-8,28.9-26.1,39c0,0,0,0,0,0c0,0,0,0,0,0
			c-1.6-0.1-24.6-13.8-51.2-19.7c-6.3-1.4-12.9-2.1-19.1-2.1c-18.3,0-34,6.3-34.1,20.1c0,15.5,18.9,24.2,40.7,24.2
			c2.9,0,5.9-0.2,8.9-0.5c24.7-2.6,52.6-15.1,52.6-15.1c12.7,6,20.1,12,45.4,12.9c1.3,0,2.5,0.1,3.8,0.1c59.3-0.1,66.4-52.4,66.5-70
			C220.9,49.8,175.8,35.9,151.9,32.8z M50.8,173.6c-24.3,1.7-36.5-7.4-36.5-7.4s-6.8-4.8-7.3-13.5c0.6-9.9,17-13.1,17-13.1
			s9.2-3.6,32.6,1.4c23.1,4.4,45.9,17.2,45.9,17.2S71.9,171.8,50.8,173.6z"/>
		<linearGradient id="SVGID_4_" gradientUnits="userSpaceOnUse" x1="222.1671" y1="104.2847" x2="222.1671" y2="104.0194">
			<stop  offset="0" style="stop-color:#A68443"/>
			<stop  offset="0.1963" style="stop-color:#BA9753"/>
			<stop  offset="0.4657" style="stop-color:#DEBF70"/>
			<stop  offset="0.5031" style="stop-color:#E4C674"/>
			<stop  offset="0.8344" style="stop-color:#B0914C"/>
			<stop  offset="1" style="stop-color:#A38342"/>
		</linearGradient>
		<path class="st3" d="M222.2,104.2C222.2,104.6,222.2,103.7,222.2,104.2L222.2,104.2z"/>
	</g>
	<linearGradient id="SVGID_5_" gradientUnits="userSpaceOnUse" x1="249.9593" y1="67.6913" x2="249.9593" y2="9.515">
		<stop  offset="0" style="stop-color:#A68443"/>
		<stop  offset="0.1963" style="stop-color:#BA9753"/>
		<stop  offset="0.4657" style="stop-color:#DEBF70"/>
		<stop  offset="0.5031" style="stop-color:#E4C674"/>
		<stop  offset="0.8344" style="stop-color:#B0914C"/>
		<stop  offset="1" style="stop-color:#A38342"/>
	</linearGradient>
	<path class="st4" d="M258.3,9.5l-23.4,18.8c0.7-0.4-0.6,0.4,0,0c2.8-1.4,7.1-3.3,9.9-3.3c1.3,0,2.4,0.2,3.4,0.9
		c2.2,1.5,2.7,6.5,2.7,12.8c0,10.6-1.8,24.6-2.5,29.1c0,0,15.1-21.4,16.6-34.2c0.8-6.4-1-12.4-2.9-16.8
		C260.7,12.6,258.9,10.3,258.3,9.5z"/>
	<linearGradient id="SVGID_6_" gradientUnits="userSpaceOnUse" x1="407.1295" y1="173.4454" x2="407.1295" y2="9.4944">
		<stop  offset="0" style="stop-color:#A68443"/>
		<stop  offset="0.1963" style="stop-color:#BA9753"/>
		<stop  offset="0.4657" style="stop-color:#DEBF70"/>
		<stop  offset="0.5031" style="stop-color:#E4C674"/>
		<stop  offset="0.8344" style="stop-color:#B0914C"/>
		<stop  offset="1" style="stop-color:#A38342"/>
	</linearGradient>
	<path class="st5" d="M509.9,70.2c0-11.6-8.1-20.7-20-26.6c-0.9-0.6-4-2-4-2l23.2-0.1l15.8,0.1l18-10.7L452.1,31l-16.7,14
		c0.4,0,1.6,0.1,1.9,0.1c40.8,3.4,54.2,14.7,54.3,29.7c-0.1,24.8-39.4,57.6-57.3,75.4l-0.8,0.9c0,0,0.4-15.8,0.4-16.7
		c0-4.8,0,11.7,0,0c0-10.5-0.4-34.1-2.6-44.4c-3.2-17.2-13.6-43.8-31.3-60.5c-0.3-0.4,0.3,0.3,0,0c-0.6-0.5,0.6,0.5,0,0
		c-0.9-0.8-3.9-3.3-4.8-4C381.3,14.8,367,9.5,352,9.5c-6.7,0-13.5,0.7-20.3,2.2c-6.8,1.5-13.3,3.8-19.3,6.8c-6,3-11.4,6.8-16.2,11.3
		c-7.6,7-13.6,15.8-18.1,26.2c-4.5,10.4-6.7,20.9-6.7,31.4c0,23.8,7.6,42.5,22.8,56.1c12.3,10.6,25.8,15.8,40.6,15.8
		c10.4,0,20.2-2.3,29.4-7l-0.3-1.5c-5.3,1.6-11,2.4-17.1,2.4c-7.5,0-15-1.2-22.4-3.6c-7.5-2.4-14.4-5.8-20.8-10.2
		c-8.4-6.2-14.9-14.2-19.6-23.8c-4.7-9.6-7-19.8-7-30.5c0-18.8,5.6-34.5,16.8-47C305.5,25,321,18.4,340.2,18.4h0
		c11.6,0,22.8,3.3,33.5,9.9c10.7,6.6,19.7,14.9,26.8,25c0.8,1.2,1.6,2.4,2.4,3.6c9.4,16.1,15.1,37.4,17,53.9
		c1.9,16.5,1.3,35.4,1.3,47.5c0,7.7-0.1,13.2-0.1,15.3c5.6-4.4,43.1-35.3,75.7-73.9C506.5,88.3,509.9,78.3,509.9,70.2z"/>
</g>
</svg>
